<svg width="24" height="24" viewBox="0 0 24 24" fill="none" xmlns="http://www.w3.org/2000/svg">
<path d="M3.32998 8.90997C3.32998 8.71997 3.39998 8.52997 3.54998 8.37997C3.83998 8.08997 4.31998 8.08997 4.60998 8.37997L11.13 14.9C11.61 15.38 12.39 15.38 12.87 14.9L19.39 8.37998C19.68 8.08998 20.16 8.08998 20.45 8.37998C20.74 8.66998 20.74 9.14998 20.45 9.43998L13.93 15.96C13.42 16.47 12.73 16.76 12 16.76C11.27 16.76 10.58 16.48 10.07 15.96L3.54998 9.43997C3.40998 9.28997 3.32998 9.09997 3.32998 8.90997Z" fill="black"/>
</svg>
