<svg width="24" height="24" viewBox="0 0 24 24" fill="none" xmlns="http://www.w3.org/2000/svg">
<path fill-rule="evenodd" clip-rule="evenodd" d="M7.98001 3.54L7.76627 4.81271C6.8289 4.8636 5.89336 4.93526 4.95998 5.03L2.91998 5.23C2.50998 5.27 2.20998 5.63 2.24998 6.05C2.28998 6.47 2.65998 6.77 3.07998 6.73L5.11998 6.53C10.35 6 15.63 6.2 20.92 6.73H21C21.38 6.73 21.71 6.44 21.74 6.05C21.78 5.64 21.48 5.27 21.07 5.23C19.4587 5.07186 17.8483 4.9422 16.2404 4.85246L16.24 4.85L16.02 3.55L16.0191 3.54413C15.8691 2.62414 15.645 1.25 13.31 1.25H10.69C8.36167 1.25 8.14033 2.5781 7.98035 3.53794L7.98001 3.54ZM14.55 3.8L14.7158 4.77966C12.9062 4.70829 11.1003 4.69216 9.30058 4.74763L9.47001 3.79L9.47153 3.781C9.62016 2.89906 9.64359 2.76 10.7 2.76H13.32C14.38 2.76 14.41 2.93 14.55 3.8ZM8.79002 22.75H15.21C18.7 22.75 18.84 20.82 18.95 19.26L19.6 9.19C19.63 8.77 19.31 8.42 18.9 8.39C18.49 8.37 18.13 8.68 18.1 9.09L17.45 19.16C17.35 20.68 17.31 21.25 15.21 21.25H8.79002C6.70127 21.25 6.66007 20.6807 6.55022 19.1627L6.55002 19.16L5.90002 9.09C5.87002 8.68 5.52002 8.37 5.10002 8.39C4.69002 8.42 4.37002 8.78 4.40002 9.19L5.05002 19.26C5.16002 20.82 5.30002 22.75 8.79002 22.75ZM13.66 17.25H10.33C9.92002 17.25 9.58002 16.91 9.58002 16.5C9.58002 16.09 9.92002 15.75 10.33 15.75H13.66C14.07 15.75 14.41 16.09 14.41 16.5C14.41 16.91 14.07 17.25 13.66 17.25ZM9.5 13.25H14.5C14.91 13.25 15.25 12.91 15.25 12.5C15.25 12.09 14.91 11.75 14.5 11.75H9.5C9.09 11.75 8.75 12.09 8.75 12.5C8.75 12.91 9.09 13.25 9.5 13.25Z" fill="black"/>
</svg>
