<svg width="24" height="24" viewBox="0 0 24 24" fill="none" xmlns="http://www.w3.org/2000/svg">
<path fill-rule="evenodd" clip-rule="evenodd" d="M2.88294 12.745C3.59955 11.7077 4.92917 11.25 7 11.25C7.54882 11.25 7.97196 11.3068 8.35216 11.4549C8.70915 11.5939 8.98172 11.7986 9.22126 11.9784C9.23089 11.9857 9.24047 11.9929 9.25 12C9.2851 12.0263 9.31782 12.0557 9.34779 12.0877L10.3564 13.1663C11.2519 14.113 12.7506 14.1091 13.6326 13.1673L13.6347 13.165L14.6547 12.085C14.684 12.054 14.7159 12.0256 14.75 12C14.7595 11.9929 14.7691 11.9857 14.7787 11.9784C15.0183 11.7986 15.2909 11.5939 15.6478 11.4549C16.028 11.3068 16.4512 11.25 17 11.25C19.0708 11.25 20.4005 11.7077 21.1171 12.745C21.4601 13.2416 21.6103 13.8026 21.6812 14.3455C21.75 14.8728 21.75 15.4402 21.75 15.973V17C21.75 18.4466 21.4926 19.9093 20.5775 21.0136C19.6386 22.1465 18.1387 22.75 16 22.75H8C5.4289 22.75 3.84938 22.1797 3.00787 20.9612C2.60235 20.374 2.42097 19.7052 2.33444 19.0428C2.24997 18.396 2.24998 17.6975 2.25 17.0278L2.25 15.973C2.24998 15.4402 2.24996 14.8728 2.31882 14.3455C2.38972 13.8026 2.53985 13.2416 2.88294 12.745ZM3.80619 14.5398C3.75121 14.9608 3.75 15.4356 3.75 16V17C3.75 17.7019 3.75121 18.308 3.82181 18.8485C3.89153 19.3823 4.02265 19.791 4.24214 20.1088C4.65062 20.7003 5.57111 21.25 8 21.25H16C17.8613 21.25 18.8614 20.7335 19.4225 20.0564C20.0074 19.3507 20.25 18.3134 20.25 17V16C20.25 15.4356 20.2488 14.9608 20.1938 14.5398C20.1397 14.1255 20.0399 13.8247 19.8829 13.5975C19.5995 13.1873 18.9292 12.75 17 12.75C16.5488 12.75 16.332 12.7982 16.1922 12.8526C16.0531 12.9068 15.9391 12.9841 15.701 13.1618L14.7274 14.1927C14.727 14.1931 14.7266 14.1936 14.7262 14.194C13.2484 15.7704 10.749 15.7666 9.26474 14.195L9.26221 14.1923L8.29752 13.1607C8.06044 12.9838 7.94663 12.9067 7.80784 12.8526C7.66804 12.7982 7.45119 12.75 7 12.75C5.07083 12.75 4.40046 13.1873 4.11707 13.5975C3.96015 13.8247 3.86029 14.1255 3.80619 14.5398Z" fill="#FEFEFE"/>
<path fill-rule="evenodd" clip-rule="evenodd" d="M4.88294 2.74495C5.59955 1.70766 6.92917 1.25 9 1.25H15C17.0708 1.25 18.4005 1.70766 19.1171 2.74495C19.4601 3.24156 19.6103 3.80261 19.6812 4.34554C19.75 4.8728 19.75 5.44024 19.75 5.97301V12C19.75 12.4142 19.4142 12.75 19 12.75C18.5858 12.75 18.25 12.4142 18.25 12V6C18.25 5.43556 18.2488 4.96078 18.1938 4.53977C18.1397 4.12552 18.0399 3.82469 17.8829 3.59755C17.5995 3.18734 16.9292 2.75 15 2.75H9C7.07083 2.75 6.40046 3.18734 6.11707 3.59755C5.96015 3.82469 5.86029 4.12552 5.80619 4.53977C5.75121 4.96078 5.75 5.43556 5.75 6V12C5.75 12.4142 5.41421 12.75 5 12.75C4.58579 12.75 4.25 12.4142 4.25 12L4.25 5.97301C4.24998 5.44024 4.24996 4.8728 4.31882 4.34554C4.38972 3.80261 4.53985 3.24156 4.88294 2.74495Z" fill="#FEFEFE"/>
<path fill-rule="evenodd" clip-rule="evenodd" d="M9.80005 9.22998C9.80005 8.81577 10.1358 8.47998 10.55 8.47998H13.88C14.2943 8.47998 14.63 8.81577 14.63 9.22998C14.63 9.64419 14.2943 9.97998 13.88 9.97998H10.55C10.1358 9.97998 9.80005 9.64419 9.80005 9.22998Z" fill="#FEFEFE"/>
<path fill-rule="evenodd" clip-rule="evenodd" d="M8.96997 6.22998C8.96997 5.81577 9.30576 5.47998 9.71997 5.47998H14.72C15.1342 5.47998 15.47 5.81577 15.47 6.22998C15.47 6.64419 15.1342 6.97998 14.72 6.97998H9.71997C9.30576 6.97998 8.96997 6.64419 8.96997 6.22998Z" fill="#FEFEFE"/>
</svg>
