<svg width="19" height="19" viewBox="0 0 19 19" fill="none" xmlns="http://www.w3.org/2000/svg">
<path fill-rule="evenodd" clip-rule="evenodd" d="M2.43842 2.6269C3.49164 1.57368 5.05103 1.18848 7 1.18848H8.5C8.91421 1.18848 9.25 1.52426 9.25 1.93848C9.25 2.35269 8.91421 2.68848 8.5 2.68848H7C5.19897 2.68848 4.13336 3.05328 3.49908 3.68756C2.8648 4.32184 2.5 5.38745 2.5 7.18848V11.6885C2.5 13.4895 2.8648 14.5551 3.49908 15.1894C4.13336 15.8237 5.19897 16.1885 7 16.1885H11.5C13.301 16.1885 14.3666 15.8237 15.0009 15.1894C15.6352 14.5551 16 13.4895 16 11.6885V10.1885C16 9.77426 16.3358 9.43848 16.75 9.43848C17.1642 9.43848 17.5 9.77426 17.5 10.1885V11.6885C17.5 13.6374 17.1148 15.1968 16.0616 16.2501C15.0084 17.3033 13.449 17.6885 11.5 17.6885H7C5.05103 17.6885 3.49164 17.3033 2.43842 16.2501C1.3852 15.1968 1 13.6374 1 11.6885V7.18848C1 5.2395 1.3852 3.68012 2.43842 2.6269Z" fill="#666666"/>
<path fill-rule="evenodd" clip-rule="evenodd" d="M13.8792 1.01216C14.7888 0.922874 15.6689 1.32681 16.5153 2.17324C17.3617 3.01967 17.7657 3.89974 17.6764 4.80934C17.591 5.6796 17.0682 6.38597 16.5153 6.9389L10.5966 12.8576C10.4102 13.038 10.1721 13.1909 9.94773 13.3037C9.72506 13.4156 9.45561 13.5182 9.19105 13.556L6.92973 13.8791C6.3239 13.9625 5.73012 13.798 5.30917 13.3787C4.88717 12.9584 4.72108 12.3638 4.8102 11.7537C4.81028 11.7532 4.81036 11.7527 4.81043 11.7521L5.13218 9.49993C5.13224 9.49947 5.13231 9.49901 5.13237 9.49855C5.16991 9.2311 5.27192 8.95991 5.38486 8.7352C5.49811 8.50989 5.65347 8.26943 5.83965 8.08324L11.7497 2.17324C12.3026 1.62031 13.009 1.09758 13.8792 1.01216ZM14.0257 2.50499C13.6735 2.53956 13.2774 2.76683 12.8103 3.2339L6.90031 9.1439C6.8615 9.18272 6.79186 9.276 6.7251 9.40882C6.65824 9.54185 6.6254 9.65262 6.61779 9.70722L6.61745 9.70964L6.29494 11.9671L6.29453 11.97C6.26417 12.1768 6.32691 12.2753 6.36767 12.3159C6.40974 12.3578 6.51306 12.4219 6.72368 12.3933C6.7242 12.3932 6.72472 12.3931 6.72523 12.3931L8.97892 12.0711C9.02935 12.0639 9.13865 12.0315 9.27411 11.9635C9.40484 11.8977 9.5028 11.8275 9.55018 11.7827L15.4547 5.87824C15.9217 5.41117 16.149 5.01505 16.1836 4.66281C16.2143 4.34991 16.1082 3.88747 15.4547 3.2339C14.8011 2.58033 14.3386 2.47427 14.0257 2.50499Z" fill="#666666"/>
<path fill-rule="evenodd" clip-rule="evenodd" d="M11.2301 2.82881C11.629 2.717 12.0429 2.94969 12.1547 3.34853C12.5863 4.88814 13.7916 6.0951 15.342 6.53438C15.7405 6.64729 15.9721 7.0619 15.8592 7.46042C15.7462 7.85895 15.3316 8.09048 14.9331 7.97757C12.8835 7.39684 11.2838 5.7988 10.7104 3.75342C10.5986 3.35458 10.8313 2.94062 11.2301 2.82881Z" fill="#666666"/>
</svg>
