<svg width="24" height="24" viewBox="0 0 24 24" fill="none" xmlns="http://www.w3.org/2000/svg">
<path d="M10.94 22.65C10.46 22.65 9.99002 22.53 9.55002 22.29C8.67002 21.8 8.14002 20.91 8.14002 19.91V14.61C8.14002 14.11 7.81002 13.36 7.50002 12.98L3.76002 9.02C3.13002 8.39 2.65002 7.31 2.65002 6.5V4.2C2.65002 2.6 3.86002 1.35 5.40002 1.35H18.6C20.12 1.35 21.35 2.58 21.35 4.1V6.3C21.35 7.35 20.72 8.54 20.13 9.13L15.8 12.96C15.38 13.31 15.05 14.08 15.05 14.7V19C15.05 19.89 14.49 20.92 13.79 21.34L12.41 22.23C11.96 22.51 11.45 22.65 10.94 22.65ZM5.40002 2.85C4.70002 2.85 4.15002 3.44 4.15002 4.2V6.5C4.15002 6.87 4.45002 7.59 4.83002 7.97L8.64002 11.98C9.15002 12.61 9.65002 13.66 9.65002 14.6V19.9C9.65002 20.55 10.1 20.87 10.29 20.97C10.71 21.2 11.22 21.2 11.61 20.96L13 20.07C13.28 19.9 13.56 19.36 13.56 19V14.7C13.56 13.63 14.08 12.45 14.83 11.82L19.11 8.03C19.45 7.69 19.86 6.88 19.86 6.29V4.1C19.86 3.41 19.3 2.85 18.61 2.85H5.40002Z" fill="black"/>
<path d="M5.99998 10.75C5.85998 10.75 5.72998 10.71 5.59998 10.64C5.24998 10.42 5.13998 9.95 5.35998 9.6L10.29 1.7C10.51 1.35 10.97 1.24 11.32 1.46C11.67 1.68 11.78 2.14 11.56 2.49L6.62998 10.39C6.48998 10.62 6.24998 10.75 5.99998 10.75Z" fill="black"/>
</svg>
