<svg width="260" height="300" viewBox="0 0 260 300" fill="none" xmlns="http://www.w3.org/2000/svg">
<path d="M1.79336 263.407H7.83719V292.606H1.79336V263.407ZM1 255.669C1 253.496 2.69648 251.801 4.86896 251.801C6.98896 251.801 8.68424 253.496 8.68424 255.669C8.68424 257.842 6.98896 259.538 4.86896 259.538C2.69648 259.538 1 257.842 1 255.669Z" fill="#00A0A0"/>
<path d="M13.6631 253.391H19.7045V276.179L30.3033 263.407H38.6771L25.2163 278.034L38.6771 292.607H30.5156L19.7045 280.048V292.607H13.6631V253.391Z" fill="#00A0A0"/>
<path d="M40.8969 263.407H46.9384V292.606H40.8969V263.407ZM40.1012 255.669C40.1012 253.496 41.7977 251.801 43.9702 251.801C46.0913 251.801 47.7878 253.496 47.7878 255.669C47.7878 257.842 46.0913 259.538 43.9702 259.538C41.7977 259.538 40.1012 257.842 40.1012 255.669Z" fill="#00A0A0"/>
<path d="M73.4859 276.284C73.4859 270.932 70.5714 268.176 66.1715 268.176C61.7204 268.176 58.8058 270.932 58.8058 276.284V292.606H52.7644V263.406H58.8058V266.744C60.766 264.36 63.999 262.929 67.4982 262.929C74.333 262.929 79.4737 267.222 79.4737 275.383V292.606H73.4859V276.284Z" fill="#00A0A0"/>
<path d="M97.3261 262.93C104.481 262.93 109.145 266.48 110.787 272.628H104.268C103.263 269.818 100.93 268.017 97.3261 268.017C92.4515 268.017 89.2184 271.62 89.2184 277.98C89.2184 284.393 92.4515 287.996 97.3261 287.996C100.93 287.996 103.156 286.405 104.268 283.385H110.787C109.145 289.109 104.481 293.083 97.3261 293.083C88.9535 293.083 83.0183 287.147 83.0183 277.98C83.0183 268.864 88.9535 262.93 97.3261 262.93Z" fill="#00A0A0"/>
<path d="M114.703 263.407H120.744V292.606H114.703V263.407ZM113.907 255.669C113.907 253.496 115.604 251.801 117.776 251.801C119.897 251.801 121.594 253.496 121.594 255.669C121.594 257.842 119.897 259.538 117.776 259.538C115.604 259.538 113.907 257.842 113.907 255.669Z" fill="#00A0A0"/>
<path d="M148.277 293.085C141.281 293.085 136.353 288.951 136.087 283.652H142.34C142.552 286.035 144.83 287.998 148.169 287.998C151.669 287.998 153.521 286.513 153.521 284.499C153.521 278.775 136.564 282.061 136.564 271.358C136.564 266.693 140.909 262.93 147.8 262.93C154.424 262.93 158.769 266.481 159.088 272.31H153.044C152.834 269.766 150.873 268.017 147.585 268.017C144.353 268.017 142.659 269.343 142.659 271.304C142.659 277.187 159.14 273.9 159.458 284.446C159.458 289.375 155.164 293.085 148.277 293.085Z" fill="#00A0A0"/>
<path d="M179.01 268.176C174.505 268.176 170.159 271.568 170.159 277.874C170.159 284.181 174.505 287.839 179.01 287.839C183.567 287.839 187.857 284.288 187.857 277.982C187.857 271.727 183.567 268.176 179.01 268.176ZM177.738 262.929C182.664 262.929 186.055 265.262 187.857 267.648V263.407H193.952V292.608H187.857V288.262C186.004 290.753 182.505 293.085 177.63 293.085C170.051 293.085 163.956 286.884 163.956 277.874C163.956 268.866 170.051 262.929 177.738 262.929Z" fill="#00A0A0"/>
<path d="M222.617 276.286C222.617 270.931 219.703 268.177 215.302 268.177C210.852 268.177 207.937 270.931 207.937 276.286V292.607H201.893V263.407H207.937V266.746C209.897 264.361 213.13 262.93 216.63 262.93C223.464 262.93 228.605 267.222 228.605 275.384V292.607H222.617V276.286Z" fill="#00A0A0"/>
<path d="M246.878 293.085C239.883 293.085 234.957 288.951 234.691 283.652H240.945C241.156 286.035 243.435 287.998 246.774 287.998C250.269 287.998 252.126 286.513 252.126 284.499C252.126 278.775 235.167 282.061 235.167 271.358C235.167 266.693 239.513 262.93 246.404 262.93C253.029 262.93 257.37 266.481 257.689 272.31H251.648C251.437 269.766 249.477 268.017 246.189 268.017C242.957 268.017 241.263 269.343 241.263 271.304C241.263 277.187 257.744 273.9 258.062 284.446C258.062 289.375 253.768 293.085 246.878 293.085Z" fill="#00A0A0"/>
<path d="M149.48 296.997L140.817 300L140.058 297.811L148.245 293.434L149.48 296.997Z" fill="#00A0A0"/>
<path d="M25.8017 101.637C25.8017 134.722 41.657 164.05 66.1353 182.601C66.158 182.602 86.9404 183.526 112.265 206.345C159.025 248.476 194.767 223.128 206.879 194.109C192.376 199.604 175.051 190.489 155.753 181.373C128.929 168.704 98.2943 156.034 66.1353 182.601C78.3411 135.149 140.204 123.363 142.906 96.4818C144.63 79.3131 129.131 77.6524 126.262 77.6524C120.106 77.6524 105.791 79.3274 105.791 94.8342H99.454H64.4687H61.244C61.244 54.3098 93.9529 33.1039 126.262 33.1039C160.949 33.1039 191.504 60.8511 187.833 100.778C184.064 141.744 155.917 152.332 139.227 162.377C161.808 163.625 214.345 151.97 222.201 103.233C229.123 60.294 195.197 -4.95625e-06 127.439 -4.95625e-06C71.3071 -4.95625e-06 25.8017 45.5053 25.8017 101.637Z" fill="url(#paint0_linear_4_56)"/>
<defs>
<linearGradient id="paint0_linear_4_56" x1="58.2422" y1="-11.5704" x2="178.917" y2="189.551" gradientUnits="userSpaceOnUse">
<stop stop-color="#FF4800"/>
<stop offset="0.983952" stop-color="#73B700"/>
<stop offset="1" stop-color="#73B700"/>
</linearGradient>
</defs>
</svg>
