<svg width="24" height="24" viewBox="0 0 24 24" fill="none" xmlns="http://www.w3.org/2000/svg">
<path fill-rule="evenodd" clip-rule="evenodd" d="M1.25 12C1.25 6.08579 6.08579 1.25 12 1.25C17.9142 1.25 22.75 6.08579 22.75 12C22.75 17.9142 17.9142 22.75 12 22.75C6.08579 22.75 1.25 17.9142 1.25 12ZM12 2.75C6.91421 2.75 2.75 6.91421 2.75 12C2.75 17.0858 6.91421 21.25 12 21.25C17.0858 21.25 21.25 17.0858 21.25 12C21.25 6.91421 17.0858 2.75 12 2.75Z" fill="black"/>
<path fill-rule="evenodd" clip-rule="evenodd" d="M14.9966 12C14.9966 11.4477 15.4443 11 15.9966 11H16.0056C16.5578 11 17.0056 11.4477 17.0056 12C17.0056 12.5523 16.5578 13 16.0056 13H15.9966C15.4443 13 14.9966 12.5523 14.9966 12Z" fill="black"/>
<path fill-rule="evenodd" clip-rule="evenodd" d="M10.9956 12C10.9956 11.4477 11.4433 11 11.9956 11H12.0046C12.5569 11 13.0046 11.4477 13.0046 12C13.0046 12.5523 12.5569 13 12.0046 13H11.9956C11.4433 13 10.9956 12.5523 10.9956 12Z" fill="black"/>
<path fill-rule="evenodd" clip-rule="evenodd" d="M6.99463 12C6.99463 11.4477 7.44234 11 7.99463 11H8.00361C8.5559 11 9.00361 11.4477 9.00361 12C9.00361 12.5523 8.5559 13 8.00361 13H7.99463C7.44234 13 6.99463 12.5523 6.99463 12Z" fill="black"/>
</svg>
