<svg width="24" height="24" viewBox="0 0 24 24" fill="none" xmlns="http://www.w3.org/2000/svg">
<path fill-rule="evenodd" clip-rule="evenodd" d="M11.6809 3.46523C10.8482 3.75262 10.1936 4.35438 9.67526 5.42645L9.67306 5.43101C9.407 5.972 9.18286 6.65262 8.99018 7.47143C8.99015 7.47155 8.99021 7.47131 8.99018 7.47143L8.01033 11.6608C7.53745 13.6778 7.66077 14.9957 8.22589 15.9055C8.79154 16.8163 9.91983 17.5123 11.9332 17.9903L13.616 18.3909C14.1647 18.5234 14.6655 18.606 15.1198 18.6424L15.1318 18.6433C16.5612 18.7808 17.5297 18.507 18.2374 17.9014C18.9704 17.2741 19.5447 16.1898 19.9495 14.45L20.9298 10.2688C21.4029 8.25095 21.2815 6.93117 20.7164 6.02041C20.1514 5.10968 19.022 4.41346 16.9994 3.94036C16.9994 3.94034 16.9995 3.94038 16.9994 3.94036L15.3294 3.55036L15.3274 3.54987C13.7183 3.16929 12.5486 3.16579 11.6809 3.46523ZM15.6716 2.0899C13.9411 1.6807 12.4462 1.61432 11.1916 2.04729C9.90258 2.49214 8.97752 3.42458 8.32591 4.77128C7.99255 5.44972 7.73704 6.24818 7.52997 7.12823L6.54984 11.3188C6.54987 11.3187 6.5498 11.3189 6.54984 11.3188C6.0428 13.4817 6.07435 15.2844 6.95167 16.697C7.82851 18.1087 9.4302 18.9377 11.5868 19.4497L13.264 19.8491C13.2645 19.8492 13.2649 19.8493 13.2654 19.8494C13.8739 19.9962 14.4507 20.0933 14.9942 20.1371C16.6821 20.2984 18.1016 19.9918 19.2126 19.0411C20.2995 18.111 20.9752 16.6605 21.4103 14.7906C21.4103 14.7908 21.4104 14.7904 21.4103 14.7906L22.3902 10.6112C22.8971 8.44906 22.8685 6.64384 21.991 5.2296C21.1136 3.81537 19.508 2.98661 17.3408 2.47972L15.6726 2.09015C15.6723 2.09006 15.6719 2.08998 15.6716 2.0899Z" fill="#FEFEFE"/>
<path fill-rule="evenodd" clip-rule="evenodd" d="M9.59704 4.6459C9.76909 4.87205 9.79855 5.176 9.67315 5.43099C9.40709 5.97198 9.18297 6.6526 8.99029 7.47141L8.01043 11.6608C7.53755 13.6778 7.66088 14.9957 8.226 15.9056C8.79166 16.8163 9.91995 17.5123 11.9334 17.9903L13.6161 18.391C14.1649 18.5234 14.6656 18.6061 15.1199 18.6424C15.4374 18.6678 15.7042 18.8909 15.7854 19.1988C15.8665 19.5067 15.7444 19.8324 15.4808 20.011C14.7827 20.4839 13.9319 20.8602 12.944 21.1826L12.9428 21.183L11.3646 21.7024L11.3603 21.7038C9.30561 22.3663 7.55241 22.4852 6.10852 21.7464C4.66488 21.0078 3.73436 19.5161 3.06685 17.4618L1.78632 13.5102C1.12408 11.4562 1.00251 9.701 1.73799 8.25604C2.47381 6.8104 3.9632 5.87965 6.0178 5.21689L7.60344 4.69503C8.02477 4.56144 8.44758 4.44123 8.86072 4.36307C9.13992 4.31025 9.425 4.41975 9.59704 4.6459ZM7.77165 6.21882L6.48029 6.64383C4.56603 7.26102 3.54121 8.02011 3.07479 8.93646C2.6078 9.85393 2.5962 11.1336 3.2138 13.0494L4.49343 16.9982C5.1159 18.9138 5.87545 19.9423 6.79176 20.4111C7.70754 20.8797 8.98376 20.8937 10.8979 20.2769L10.9 20.2762L12.4757 19.7576L12.4775 19.757C12.5339 19.7386 12.5895 19.7201 12.6443 19.7015L7.5 16.5M7.77165 6.21882C7.68406 6.5104 7.60398 6.81411 7.53008 7.12822L6.54994 11.3188" fill="#FEFEFE"/>
<path fill-rule="evenodd" clip-rule="evenodd" d="M11.9128 8.34566C12.0147 7.94415 12.4227 7.70122 12.8242 7.80304L17.6742 9.03304C18.0757 9.13486 18.3186 9.54289 18.2168 9.94439C18.115 10.3459 17.707 10.5888 17.3055 10.487L12.4555 9.25701C12.054 9.15519 11.811 8.74716 11.9128 8.34566Z" fill="#FEFEFE"/>
<path fill-rule="evenodd" clip-rule="evenodd" d="M10.9331 12.2146C11.0355 11.8132 11.4439 11.5709 11.8453 11.6733L14.7453 12.4133C15.1466 12.5157 15.389 12.9241 15.2866 13.3255C15.1841 13.7268 14.7758 13.9692 14.3744 13.8667L11.4744 13.1267C11.0731 13.0243 10.8307 12.6159 10.9331 12.2146Z" fill="#FEFEFE"/>
</svg>
