<svg width="24" height="24" viewBox="0 0 24 24" fill="none" xmlns="http://www.w3.org/2000/svg">
<path fill-rule="evenodd" clip-rule="evenodd" d="M1.25 16C1.25 14.4858 2.48579 13.25 4 13.25H8.67C9.08421 13.25 9.42 13.5858 9.42 14V22C9.42 22.4142 9.08421 22.75 8.67 22.75H2C1.58579 22.75 1.25 22.4142 1.25 22V16ZM4 14.75C3.31421 14.75 2.75 15.3142 2.75 16V21.25H7.92V14.75H4Z" fill="#FEFEFE"/>
<path fill-rule="evenodd" clip-rule="evenodd" d="M7.91 12C7.91 10.4858 9.14579 9.25 10.66 9.25H13.33C14.8567 9.25 16.08 10.4882 16.08 12V22C16.08 22.4142 15.7442 22.75 15.33 22.75H8.66C8.24579 22.75 7.91 22.4142 7.91 22V12ZM10.66 10.75C9.97422 10.75 9.41 11.3142 9.41 12V21.25H14.58V12C14.58 11.3118 14.0234 10.75 13.33 10.75H10.66Z" fill="#FEFEFE"/>
<path fill-rule="evenodd" clip-rule="evenodd" d="M14.58 17C14.58 16.5858 14.9158 16.25 15.33 16.25H20C21.5142 16.25 22.75 17.4858 22.75 19V22C22.75 22.4142 22.4142 22.75 22 22.75H15.33C14.9158 22.75 14.58 22.4142 14.58 22V17ZM16.08 17.75V21.25H21.25V19C21.25 18.3142 20.6858 17.75 20 17.75H16.08Z" fill="#FEFEFE"/>
<path fill-rule="evenodd" clip-rule="evenodd" d="M12.0025 2.71205L11.6208 3.47542L11.6208 3.47543C11.5172 3.68258 11.3578 3.8374 11.219 3.93981C11.0784 4.0435 10.8878 4.14599 10.6682 4.18717L10.6533 4.18981L10.0166 4.29591L10.5126 4.79198C10.6981 4.96915 10.8011 5.19039 10.8538 5.3716C10.908 5.55763 10.937 5.79675 10.8808 6.03869L10.7586 6.57402L11.3131 6.24745C11.5392 6.10961 11.7897 6.06502 11.995 6.06502C12.2003 6.06502 12.4508 6.10961 12.6769 6.24745L13.2314 6.57402L13.1092 6.03869C13.0529 5.79654 13.0819 5.55924 13.1369 5.37287C13.1926 5.18381 13.2971 4.97222 13.4697 4.79966L13.9834 4.28592L13.3576 4.18161C13.1242 4.14822 12.9249 4.04344 12.781 3.9373C12.6348 3.82944 12.4772 3.66958 12.3759 3.45879L12.0025 2.71205ZM11.995 0.893765C12.6031 0.889727 12.9913 1.34238 13.1885 1.72992L13.1908 1.73459L13.1908 1.7346L13.6809 2.71481L14.5513 2.85989C14.5517 2.85995 14.5521 2.86001 14.5524 2.86007C14.9915 2.93231 15.5131 3.1749 15.6962 3.73206C15.8812 4.29468 15.5978 4.79844 15.2777 5.11295L14.5928 5.79783L14.7809 6.62175C14.8805 7.0511 14.9101 7.73091 14.3652 8.1276C13.8221 8.52293 13.1852 8.28907 12.8083 8.06564C12.8079 8.0654 12.8075 8.06515 12.8071 8.06491L11.995 7.58668L11.1829 8.06491C11.1825 8.06514 11.1821 8.06538 11.1817 8.06561C10.8049 8.28905 10.1679 8.52295 9.62482 8.1276C9.07988 7.73088 9.10949 7.051 9.20913 6.62165C9.20927 6.62107 9.2094 6.62048 9.20954 6.6199L9.39718 5.79783L8.71967 5.12033L8.71966 5.12033C8.41045 4.81112 8.11534 4.30832 8.29899 3.74136C8.48236 3.17531 9.01506 2.94029 9.44841 2.86991L10.3191 2.72482L10.8092 1.74459L10.8092 1.74458C11.0047 1.35361 11.3885 0.897791 11.995 0.893765ZM12.0975 7.52601C12.0946 7.52781 12.0918 7.52952 12.089 7.53114L12.0975 7.52601ZM11.9009 7.53114C11.8982 7.52951 11.8954 7.52781 11.8925 7.52601L11.9009 7.53114ZM13.7296 2.81284L13.7251 2.80354C13.7266 2.80652 13.7281 2.80962 13.7296 2.81284Z" fill="#FEFEFE"/>
</svg>
