<svg width="24" height="24" viewBox="0 0 24 24" fill="none" xmlns="http://www.w3.org/2000/svg">
<path fill-rule="evenodd" clip-rule="evenodd" d="M12 23C18.0751 23 23 18.0751 23 12C23 5.92487 18.0751 1 12 1C5.92487 1 1 5.92487 1 12C1 18.0751 5.92487 23 12 23ZM12 21C16.9706 21 21 16.9706 21 12C21 7.02944 16.9706 3 12 3C7.02944 3 3 7.02944 3 12C3 16.9706 7.02944 21 12 21Z" fill="white"/>
<path fill-rule="evenodd" clip-rule="evenodd" d="M17.5979 8.29289C17.2074 7.90237 16.5742 7.90237 16.1837 8.29289L10.9692 13.5074L8.69958 11.2854C8.30494 10.899 7.67181 10.9057 7.28545 11.3003C6.89908 11.695 6.90578 12.3281 7.30042 12.7145L10.0193 15.3763C10.0864 15.4421 10.1604 15.4964 10.239 15.5394C10.2561 15.5594 10.2741 15.5789 10.293 15.5978C10.6835 15.9883 11.3167 15.9883 11.7072 15.5978L17.5979 9.70711C17.9884 9.31658 17.9884 8.68342 17.5979 8.29289Z" fill="white"/>
</svg>
