<svg xmlns="http://www.w3.org/2000/svg" width="165" height="28" viewBox="0 0 146 24"><path fill="#FF6000" fill-rule="evenodd" d="M37.016 4.8c1.668 0 3.082.594 4.24 1.783 1.157 1.189 1.736 2.935 1.736 5.237 0 2.428-.566 4.28-1.697 5.552-1.132 1.273-2.589 1.91-4.372 1.91-1.136 0-2.08-.274-2.831-.822-.41-.303-.813-.746-1.206-1.328v6.825h-3.672V5.103h3.555v2.036c.402-.598.83-1.07 1.284-1.416.83-.616 1.818-.924 2.963-.924zm-16.081-.064c1.235 0 2.348.216 3.338.646.99.431 1.808 1.11 2.453 2.04.582.82.959 1.77 1.131 2.85.1.634.14 1.546.123 2.736H17.64c.058 1.383.553 2.353 1.485 2.91.567.346 1.249.518 2.046.518.846 0 1.533-.21 2.061-.632.289-.228.543-.544.764-.949h3.79c-.1.818-.559 1.649-1.376 2.492-1.272 1.34-3.052 2.011-5.341 2.011-1.89 0-3.556-.565-5-1.696s-2.166-2.971-2.166-5.52c0-2.388.652-4.22 1.955-5.494 1.304-1.274 2.996-1.912 5.077-1.912zm29.086-.025c1.775 0 3.222.344 4.34 1.03 1.118.688 1.76 1.875 1.925 3.561h-3.712c-.052-.463-.187-.83-.404-1.1-.41-.49-1.106-.734-2.09-.734-.81 0-1.386.122-1.73.367-.344.245-.516.532-.516.86 0 .413.183.713.548.898.366.194 1.658.527 3.876 1 1.478.337 2.587.847 3.325 1.53.73.692 1.094 1.556 1.094 2.593 0 1.366-.524 2.481-1.573 3.346-1.048.864-2.668 1.296-4.86 1.296-2.237 0-3.887-.458-4.953-1.372-1.066-.915-1.599-2.08-1.599-3.498h3.764c.079.641.249 1.097.51 1.366.463.48 1.318.721 2.565.721.733 0 1.316-.105 1.747-.316.432-.21.648-.527.648-.949 0-.404-.174-.712-.522-.923-.348-.21-1.642-.573-3.883-1.088-1.613-.387-2.75-.872-3.409-1.454-.66-.574-.99-1.4-.99-2.48 0-1.273.516-2.367 1.547-3.282 1.03-.914 2.482-1.372 4.352-1.372zm59.756.107c1.557 0 2.941.3 4.15.896 1.21.598 1.814 1.725 1.814 3.383v6.525c.003.742.011 2.726.027 3.28h-3.6s.026-1.302 0-1.614a7.624 7.624 0 0 1-1.778 1.377c-.802.445-1.708.669-2.72.669-1.289 0-2.354-.356-3.195-1.067-.84-.711-1.261-1.719-1.261-3.023 0-1.691.676-2.916 2.029-3.673.742-.412 1.833-.707 3.273-.883l1.27-.152c.69-.084 1.182-.19 1.48-.316.531-.218.798-.56.798-1.022 0-.564-.204-.953-.613-1.167-.408-.215-1.008-.322-1.798-.322-.887 0-1.515.21-1.884.63-.263.312-.439.733-.527 1.263h-3.573c.078-1.203.426-2.192 1.044-2.966.983-1.212 2.671-1.818 5.064-1.818zm29.414 0c1.557 0 2.94.3 4.15.896 1.21.598 1.814 1.725 1.814 3.383v6.525c.002.742.01 2.726.026 3.28h-3.6s.027-1.302 0-1.614a7.627 7.627 0 0 1-1.777 1.377c-.802.445-1.708.669-2.72.669-1.29 0-2.354-.356-3.195-1.067-.841-.711-1.261-1.719-1.261-3.023 0-1.691.676-2.916 2.029-3.673.741-.412 1.833-.707 3.273-.883l1.27-.152c.69-.084 1.182-.19 1.479-.316.532-.218.799-.56.799-1.022 0-.564-.204-.953-.613-1.167-.408-.215-1.008-.322-1.798-.322-.887 0-1.515.21-1.884.63-.263.312-.439.733-.527 1.263h-3.574c.078-1.203.427-2.192 1.045-2.966.983-1.212 2.67-1.818 5.064-1.818zM130.94.031v18.86h-3.608v-1.91c-.53.817-1.133 1.412-1.81 1.783-.678.37-1.52.556-2.527.556-1.658 0-3.054-.651-4.187-1.954-1.133-1.303-1.7-2.974-1.7-5.015 0-2.353.558-4.204 1.674-5.553 1.115-1.349 2.607-2.024 4.474-2.024.86 0 1.623.184 2.292.55a4.457 4.457 0 0 1 1.628 1.525V.03h3.764zm-63.431 0v6.868c.471-.64.992-1.13 1.56-1.467.673-.422 1.529-.633 2.569-.633 1.879 0 3.349.654 4.41 1.961 1.062 1.307 1.593 2.993 1.593 5.06 0 2.142-.524 3.916-1.57 5.325-1.048 1.408-2.51 2.112-4.386 2.112-1.178 0-2.125-.228-2.84-.683-.428-.27-.891-.742-1.388-1.417v1.733h-3.66V.031h3.712zm15.378 5.072v8.31c0 .784.095 1.375.285 1.771.337.7.997 1.05 1.982 1.05 1.262 0 2.126-.498 2.592-1.493.242-.54.363-1.252.363-2.137V5.103h3.764V18.89h-3.608v-1.948a6.47 6.47 0 0 0-.26.38 2.536 2.536 0 0 1-.493.556c-.58.506-1.14.852-1.682 1.037-.54.186-1.175.279-1.902.279-2.096 0-3.507-.734-4.234-2.201-.407-.81-.61-2.003-.61-3.58v-8.31h3.803zM3.712.068V6.28c.686-.659 1.03-.873 1.717-1.138.721-.278 1.59-.406 2.367-.406.874 0 1.667.148 2.38.443a4.147 4.147 0 0 1 1.757 1.355c.389.515.627 1.044.713 1.589.087.544.13 1.433.13 2.665v8.102h-3.79v-8.395c0-.743-.13-1.343-.388-1.799-.336-.641-.974-.962-1.913-.962-.974 0-1.713.318-2.217.956-.504.637-.756 1.547-.756 2.729v7.471H0V.068h3.712zm58.202 5.035V18.89H58.15V5.103h3.764zm40.21-.322c.047.004.154.01.319.018v3.694a10.37 10.37 0 0 0-1.068-.063c-1.494 0-2.496.472-3.009 1.417-.286.53-.43 1.349-.43 2.453v6.59H94.2V5.103h3.542v2.404c.573-.92 1.072-1.548 1.498-1.885.694-.565 1.597-.848 2.71-.848.068 0 .127.002.174.007zm9.926 7.434a4.162 4.162 0 0 1-.717.347c-.242.088-.574.17-.995.246l-.843.151c-.79.135-1.358.3-1.702.493-.584.328-.876.837-.876 1.527 0 .614.178 1.058.535 1.332.356.273.79.41 1.3.41.81 0 1.554-.228 2.237-.682.681-.455 1.035-1.283 1.061-2.486v-1.338zm29.414 0a4.162 4.162 0 0 1-.717.347c-.243.088-.574.17-.995.246l-.843.151c-.79.135-1.358.3-1.703.493-.583.328-.875.837-.875 1.527 0 .614.178 1.058.535 1.332.356.273.79.41 1.3.41.809 0 1.554-.228 2.236-.682.682-.455 1.036-1.283 1.062-2.486v-1.338zM70.597 7.949c-1.357 0-2.29.595-2.797 1.784-.263.632-.394 1.45-.394 2.453 0 1.181.271 2.16.814 2.935.543.776 1.37 1.164 2.482 1.164.963 0 1.711-.375 2.245-1.126.534-.75.801-1.737.801-2.96 0-.978-.131-1.788-.394-2.429-.499-1.214-1.418-1.82-2.757-1.82zm53.493-.025c-1.085 0-1.882.398-2.39 1.195-.507.797-.761 1.786-.761 2.966 0 1.274.258 2.292.774 3.055.517.763 1.3 1.145 2.351 1.145 1.05 0 1.85-.38 2.396-1.139.548-.759.821-1.74.821-2.947 0-1.686-.439-2.892-1.315-3.617a2.883 2.883 0 0 0-1.876-.658zm-88.137.025c-1.36 0-2.294.62-2.802 1.86-.264.657-.395 1.492-.395 2.504 0 1.602.443 2.728 1.328 3.377.526.38 1.149.57 1.868.57 1.044 0 1.84-.389 2.39-1.165.547-.775.821-1.808.821-3.099 0-1.062-.252-2.002-.756-2.82-.505-.818-1.322-1.227-2.454-1.227zm-15.017-.24c-.953 0-1.691.262-2.216.787-.524.525-.854 1.237-.988 2.134h6.394c-.067-.956-.397-1.683-.989-2.178-.591-.496-1.325-.744-2.2-.744zM59.972 0c1.129 0 2.044.889 2.044 1.985S61.1 3.97 59.972 3.97s-2.044-.889-2.044-1.985S58.843 0 59.972 0z"></path></svg>